<svg width="81" height="19" viewBox="0 0 81 19" fill="none" xmlns="http://www.w3.org/2000/svg">
<path d="M2.32 3.12001L10.312 9.648L2.272 16.176L0.880005 14.544L7.024 9.696L0.880005 4.77601L2.32 3.12001Z" fill="#39A9A9"/>
<path d="M14.4066 18V1.2H17.2146L25.9746 13.416L25.9266 1.2H28.6386V18H26.0706L17.0706 5.44801L17.1186 18H14.4066Z" fill="#39A9A9"/>
<path d="M40.3924 18.264C39.2084 18.264 38.0964 18.048 37.0564 17.616C36.0324 17.168 35.1284 16.552 34.3444 15.768C33.5764 14.968 32.9764 14.048 32.5444 13.008C32.1124 11.952 31.8964 10.816 31.8964 9.6C31.8964 8.384 32.1124 7.256 32.5444 6.216C32.9764 5.16 33.5764 4.24 34.3444 3.45601C35.1284 2.656 36.0324 2.04 37.0564 1.608C38.0964 1.16 39.2084 0.936005 40.3924 0.936005C41.5764 0.936005 42.6804 1.16 43.7044 1.608C44.7444 2.04 45.6484 2.656 46.4164 3.45601C47.2004 4.24 47.8084 5.16 48.2404 6.216C48.6724 7.256 48.8884 8.384 48.8884 9.6C48.8884 10.816 48.6724 11.952 48.2404 13.008C47.8084 14.048 47.2004 14.968 46.4164 15.768C45.6484 16.552 44.7444 17.168 43.7044 17.616C42.6804 18.048 41.5764 18.264 40.3924 18.264ZM40.3924 15.672C41.1764 15.672 41.9044 15.52 42.5764 15.216C43.2484 14.912 43.8324 14.488 44.3284 13.944C44.8404 13.384 45.2324 12.736 45.5044 12C45.7924 11.264 45.9364 10.464 45.9364 9.6C45.9364 8.736 45.7924 7.936 45.5044 7.2C45.2324 6.464 44.8404 5.824 44.3284 5.28C43.8324 4.72001 43.2484 4.288 42.5764 3.984C41.9044 3.68 41.1764 3.528 40.3924 3.528C39.6084 3.528 38.8804 3.68 38.2084 3.984C37.5364 4.288 36.9444 4.72001 36.4324 5.28C35.9364 5.824 35.5444 6.464 35.2564 7.2C34.9684 7.936 34.8244 8.736 34.8244 9.6C34.8244 10.464 34.9684 11.264 35.2564 12C35.5444 12.736 35.9364 13.384 36.4324 13.944C36.9444 14.488 37.5364 14.912 38.2084 15.216C38.8804 15.52 39.6084 15.672 40.3924 15.672Z" fill="#39A9A9"/>
<path d="M56.0236 18L49.4956 1.2H52.5916L57.7516 15.072L62.9596 1.2H65.9356L59.3596 18H56.0236Z" fill="#39A9A9"/>
<path d="M63.7221 18L70.3221 1.2H73.6581L80.1621 18H77.0661L75.3381 13.296H68.4501L66.7221 18H63.7221ZM69.2901 11.04H74.5461L71.9061 3.936L69.2901 11.04Z" fill="#39A9A9"/>
</svg>
