<svg width="166" height="457" viewBox="0 0 166 457" fill="none" xmlns="http://www.w3.org/2000/svg">
<rect x="34.9999" width="3" height="200" fill="#F0EFEF"/>
<rect x="35.7948" y="100.584" width="3" height="50" transform="rotate(45 35.7948 100.584)" fill="#F0EFEF"/>
<rect x="34.4393" y="143.705" width="3" height="50" transform="rotate(-45 34.4393 143.705)" fill="#F0EFEF"/>
<rect x="0.999863" y="134" width="3" height="80" fill="#F0EFEF"/>
<rect x="69.9999" y="177" width="3" height="80" fill="#F0EFEF"/>
<rect x="128" width="3" height="200" fill="#F0EFEF"/>
<rect x="128.795" y="100.584" width="3" height="50" transform="rotate(45 128.795 100.584)" fill="#F0EFEF"/>
<rect x="127.439" y="143.705" width="3" height="50" transform="rotate(-45 127.439 143.705)" fill="#F0EFEF"/>
<rect x="93.9999" y="134" width="3" height="80" fill="#F0EFEF"/>
<rect x="163" y="177" width="3" height="80" fill="#F0EFEF"/>
<rect x="34.9999" y="200" width="3" height="148" fill="#F0EFEF"/>
<rect x="35.7948" y="300.584" width="3" height="50" transform="rotate(45 35.7948 300.584)" fill="#F0EFEF"/>
<rect x="34.4393" y="343.705" width="3" height="50" transform="rotate(-45 34.4393 343.705)" fill="#F0EFEF"/>
<rect x="0.999863" y="334" width="3" height="80" fill="#F0EFEF"/>
<rect x="69.9999" y="377" width="3" height="80" fill="#F0EFEF"/>
<rect x="128" y="200" width="3" height="148" fill="#F0EFEF"/>
<rect x="128.795" y="300.584" width="3" height="50" transform="rotate(45 128.795 300.584)" fill="#F0EFEF"/>
<rect x="127.439" y="343.705" width="3" height="50" transform="rotate(-45 127.439 343.705)" fill="#F0EFEF"/>
<rect x="93.9999" y="334" width="3" height="80" fill="#F0EFEF"/>
<rect x="163" y="377" width="3" height="80" fill="#F0EFEF"/>
</svg>
