<svg width="39" height="39" viewBox="0 0 39 39" fill="none" xmlns="http://www.w3.org/2000/svg">
<path d="M2.26665 32.71C2.44317 34.8784 4.10235 36.5375 6.27073 36.7141C9.01028 36.9364 13.3818 37.1716 19.6316 37.1716C25.8813 37.1716 30.2528 36.9364 32.9924 36.7141C35.1607 36.5375 36.8199 34.8784 36.9965 32.71C37.2188 29.9705 37.4539 25.599 37.4539 19.3492C37.4539 13.0995 37.2188 8.72793 36.9965 5.98838C36.8199 3.82 35.1607 2.16082 32.9924 1.9843C30.2528 1.76194 25.8813 1.52686 19.6316 1.52686C13.3818 1.52686 9.01028 1.76194 6.27073 1.9843C4.10235 2.16082 2.44317 3.82 2.26665 5.98838C2.04428 8.72793 1.8092 13.0995 1.8092 19.3492C1.8092 25.599 2.04428 29.9705 2.26665 32.71Z" stroke="#4EB9B7" stroke-width="3" stroke-linecap="round" stroke-linejoin="round"/>
<path d="M24.313 37.124V24.4752H29.0137C29.7674 24.4752 30.4455 23.9787 30.5559 23.2336C30.7043 22.1876 30.7 21.1255 30.5431 20.0808C30.4344 19.3491 29.7826 18.8671 29.0427 18.8671H24.313C24.313 14.6287 25.0182 14.0126 28.9934 13.9355C29.7565 13.9202 30.4404 13.4177 30.5516 12.6624C30.7384 11.3936 30.6636 10.2844 30.5465 9.50526C30.4388 8.78388 29.7928 8.31541 29.0647 8.32134C22.0384 8.38245 18.0369 9.21332 18.0369 18.8671H14.3978C13.69 18.8671 13.0619 19.3101 12.955 20.0095C12.8396 20.7631 12.77 21.8553 12.9627 23.1834C13.073 23.9507 13.7638 24.4752 14.5395 24.4752H18.0369V37.1672" stroke="#4EB9B7" stroke-width="3" stroke-linecap="round" stroke-linejoin="round"/>
</svg>
