<svg width="38" height="38" viewBox="0 0 38 38" fill="none" xmlns="http://www.w3.org/2000/svg">
<path d="M28.9928 6.73567C28.549 6.73567 28.1147 6.86726 27.7453 7.11407C27.3762 7.36088 27.0882 7.71161 26.9182 8.12184C26.7482 8.53222 26.704 8.98367 26.7906 9.41937C26.8773 9.8549 27.091 10.2551 27.4051 10.5691C27.7191 10.8832 28.1193 11.0971 28.5548 11.1836C28.9905 11.2703 29.442 11.2259 29.8524 11.0558C30.2628 10.8859 30.6133 10.598 30.86 10.2288C31.1068 9.85951 31.2385 9.42542 31.2385 8.98129C31.2385 8.38567 31.002 7.81439 30.5808 7.39335C30.1598 6.97213 29.5886 6.73567 28.9928 6.73567ZM37.6011 11.2643C37.5649 9.71168 37.2741 8.17545 36.7404 6.71689C36.2644 5.469 35.524 4.33887 34.5696 3.40463C33.6429 2.44541 32.5105 1.70944 31.2572 1.2526C29.8028 0.702649 28.2645 0.405227 26.7098 0.373088C24.7264 0.260742 24.09 0.260742 19 0.260742C13.9099 0.260742 13.2735 0.260742 11.29 0.373088C9.73521 0.405227 8.1974 0.702649 6.74264 1.2526C5.49207 1.71406 4.36034 2.44939 3.43039 3.40463C2.47117 4.33124 1.7352 5.46391 1.27835 6.71689C0.728406 8.17164 0.430984 9.70945 0.398845 11.2643C0.286499 13.2479 0.286499 13.8842 0.286499 18.9743C0.286499 24.0642 0.286499 24.7006 0.398845 26.6842C0.430984 28.2389 0.728406 29.777 1.27835 31.2316C1.7352 32.4846 2.47117 33.6171 3.43039 34.5437C4.36034 35.499 5.49207 36.2343 6.74264 36.6958C8.1974 37.2456 9.73521 37.5431 11.29 37.5753C13.2735 37.6878 13.9099 37.6878 19 37.6878C24.09 37.6878 24.7264 37.6878 26.7098 37.5753C28.2645 37.5431 29.8028 37.2456 31.2572 36.6958C32.5105 36.2388 33.6429 35.503 34.5696 34.5437C35.5282 33.6131 36.2693 32.482 36.7404 31.2316C37.2741 29.773 37.5649 28.237 37.6011 26.6842C37.6011 24.7006 37.7134 24.0642 37.7134 18.9743C37.7134 13.8842 37.7134 13.2479 37.6011 11.2643ZM34.2326 26.4597C34.2191 27.6474 34.004 28.8244 33.5965 29.9403C33.2977 30.7548 32.8179 31.4907 32.193 32.0924C31.5859 32.7107 30.8515 33.1898 30.0409 33.4959C28.9252 33.9035 27.7482 34.1185 26.5601 34.1322C24.6888 34.2257 23.9965 34.2445 19.0747 34.2445C14.1531 34.2445 13.4608 34.2445 11.5894 34.1322C10.356 34.1551 9.12783 33.9654 7.95903 33.5707C7.18391 33.2492 6.48327 32.7713 5.90054 32.1672C5.27946 31.566 4.80542 30.8296 4.51581 30.0151C4.0588 28.8835 3.80546 27.6795 3.76727 26.4597C3.76727 24.5883 3.65492 23.8959 3.65492 18.9743C3.65492 14.0526 3.65492 13.3602 3.76727 11.4888C3.77555 10.2745 3.99721 9.07104 4.42225 7.93327C4.75163 7.14336 5.25735 6.43937 5.90054 5.87478C6.46911 5.23143 7.17166 4.72032 7.95903 4.37771C9.09966 3.96605 10.3019 3.7509 11.5146 3.74151C13.386 3.74151 14.0784 3.62917 19 3.62917C23.9217 3.62917 24.6141 3.62917 26.4853 3.74151C27.6733 3.75504 28.8501 3.97018 29.9662 4.37771C30.8164 4.69326 31.5796 5.20645 32.193 5.87478C32.8062 6.44955 33.2855 7.15242 33.5965 7.93327C34.0125 9.07278 34.2278 10.2758 34.2326 11.4888C34.3263 13.3602 34.3451 14.0526 34.3451 18.9743C34.3451 23.8959 34.3263 24.5883 34.2326 26.4597ZM19 9.37418C17.1021 9.37799 15.2479 9.94417 13.6716 11.0013C12.0954 12.0583 10.8679 13.5589 10.144 15.3135C9.4203 17.0678 9.23284 18.9976 9.60536 20.8585C9.97805 22.7195 10.8938 24.4284 12.237 25.7692C13.5804 27.1099 15.291 28.0222 17.1528 28.391C19.0145 28.7601 20.9437 28.5688 22.6968 27.8417C24.45 27.1145 25.9482 25.884 27.0021 24.3057C28.0563 22.7275 28.6188 20.8722 28.6188 18.9743C28.6211 17.7112 28.3739 16.4602 27.8911 15.2933C27.4085 14.1262 26.6999 13.0661 25.8059 12.1739C24.9119 11.2816 23.8504 10.5751 22.6826 10.0945C21.5143 9.61413 20.2629 9.36924 19 9.37418ZM19 25.2059C17.7675 25.2059 16.5627 24.8404 15.5381 24.1556C14.5132 23.4709 13.7144 22.4976 13.2427 21.3588C12.7711 20.2204 12.6477 18.9673 12.8882 17.7584C13.1286 16.5497 13.7221 15.4392 14.5935 14.5677C15.4649 13.6964 16.5755 13.1029 17.7843 12.8624C18.9931 12.622 20.2461 12.7453 21.3847 13.217C22.5234 13.6887 23.4966 14.4874 24.1814 15.5122C24.8661 16.5371 25.2315 17.7417 25.2315 18.9743C25.2315 19.7927 25.0703 20.6029 24.7572 21.3588C24.444 22.1151 23.985 22.8019 23.4064 23.3807C22.8276 23.9595 22.1409 24.4183 21.3847 24.7314C20.6287 25.0447 19.8183 25.2059 19 25.2059Z" fill="#4EB9B7"/>
</svg>
